<svg xmlns="http://www.w3.org/2000/svg" version="1.1" xmlns:xlink="http://www.w3.org/1999/xlink" xmlns:svgjs="http://svgjs.dev/svgjs" width="1440" height="560" preserveAspectRatio="none" viewBox="0 0 1440 560"><g mask="url(&quot;#SvgjsMask1101&quot;)" fill="none"><g transform="translate(0, 0)" stroke-linecap="round"><path d="M272 227.72 L272 332.28" stroke-width="21" stroke="#3a7cc3"></path><path d="M300 220.26 L300 339.74" stroke-width="21" stroke="#3a7cc3"></path><path d="M328 140.2 L328 419.8" stroke-width="21" stroke="#dd1133"></path><path d="M356 220.99 L356 339.01" stroke-width="21" stroke="#3a7cc3"></path><path d="M384 110.26 L384 449.74" stroke-width="21" stroke="#3a7cc3"></path><path d="M412 166.92 L412 393.08" stroke-width="21" stroke="#3a7cc3"></path><path d="M440 141.37 L440 418.63" stroke-width="21" stroke="#3a7cc3"></path><path d="M468 170.5 L468 389.5" stroke-width="21" stroke="#dd1133"></path><path d="M496 137.75 L496 422.25" stroke-width="21" stroke="#3a7cc3"></path><path d="M524 149.41 L524 410.6" stroke-width="21" stroke="#dd1133"></path><path d="M552 162.33 L552 397.67" stroke-width="21" stroke="#3a7cc3"></path><path d="M580 173.28 L580 386.73" stroke-width="21" stroke="#dd1133"></path><path d="M608 212.75 L608 347.25" stroke-width="21" stroke="#dd1133"></path><path d="M636 176.76 L636 383.24" stroke-width="21" stroke="#dd1133"></path><path d="M664 135.53 L664 424.47" stroke-width="21" stroke="#3a7cc3"></path><path d="M692 231.88 L692 328.12" stroke-width="21" stroke="#dd1133"></path><path d="M720 213 L720 347" stroke-width="21" stroke="#3a7cc3"></path><path d="M748 149.78 L748 410.22" stroke-width="21" stroke="#3a7cc3"></path><path d="M776 128.31 L776 431.69" stroke-width="21" stroke="#3a7cc3"></path><path d="M804 170.05 L804 389.95" stroke-width="21" stroke="#3a7cc3"></path><path d="M832 190.58 L832 369.42" stroke-width="21" stroke="#3a7cc3"></path><path d="M860 246.37 L860 313.63" stroke-width="21" stroke="#3a7cc3"></path><path d="M888 155.97 L888 404.03" stroke-width="21" stroke="#dd1133"></path><path d="M916 116.82 L916 443.18" stroke-width="21" stroke="#3a7cc3"></path><path d="M944 254.53 L944 305.48" stroke-width="21" stroke="#dd1133"></path><path d="M972 209.86 L972 350.14" stroke-width="21" stroke="#dd1133"></path><path d="M1000 181.72 L1000 378.28" stroke-width="21" stroke="#3a7cc3"></path><path d="M1028 181.09 L1028 378.91" stroke-width="21" stroke="#dd1133"></path><path d="M1056 138.51 L1056 421.49" stroke-width="21" stroke="#3a7cc3"></path><path d="M1084 231.12 L1084 328.88" stroke-width="21" stroke="#dd1133"></path><path d="M1112 235.08 L1112 324.92" stroke-width="21" stroke="#3a7cc3"></path><path d="M1140 235.99 L1140 324.01" stroke-width="21" stroke="#dd1133"></path><path d="M1168 197.74 L1168 362.26" stroke-width="21" stroke="#dd1133"></path></g></g><defs><mask id="SvgjsMask1101"><rect width="1440" height="560" fill="#ffffff"></rect></mask></defs></svg>