<svg xmlns="http://www.w3.org/2000/svg" version="1.1" xmlns:xlink="http://www.w3.org/1999/xlink" xmlns:svgjs="http://svgjs.dev/svgjs" width="1440" height="560" preserveAspectRatio="none" viewBox="0 0 1440 560"><g mask="url(&quot;#SvgjsMask1018&quot;)" fill="none"><path d="M-63.89 354.64L-63.89 354.64" stroke="rgba(233, 199, 203, 1)" stroke-width="1.5"></path><path d="M-63.89 354.64L107.97 350.64" stroke="rgba(233, 199, 203, 1)" stroke-width="1.5"></path><path d="M-63.89 354.64L53.67 540.55" stroke="rgba(233, 199, 203, 1)" stroke-width="1.5"></path><path d="M-76.27 711.54L-76.27 711.54" stroke="rgba(233, 199, 203, 1)" stroke-width="1.5"></path><path d="M-76.27 711.54L105.3 649.18" stroke="rgba(233, 199, 203, 1)" stroke-width="1.5"></path><path d="M-76.27 711.54L53.67 540.55" stroke="rgba(233, 199, 203, 1)" stroke-width="1.5"></path><path d="M-76.27 711.54L233.71 646.97" stroke="rgba(233, 199, 203, 1)" stroke-width="1.5"></path><path d="M-76.27 711.54L-63.89 354.64" stroke="rgba(233, 199, 203, 1)" stroke-width="1.5"></path><path d="M-76.27 711.54L256.11 558.28" stroke="rgba(233, 199, 203, 1)" stroke-width="1.5"></path><path d="M-76.27 711.54L107.97 350.64" stroke="rgba(233, 199, 203, 1)" stroke-width="1.5"></path><path d="M107.97 350.64L107.97 350.64" stroke="rgba(233, 199, 203, 1)" stroke-width="1.5"></path><path d="M107.97 350.64L53.67 540.55" stroke="rgba(233, 199, 203, 1)" stroke-width="1.5"></path><path d="M107.97 350.64L256.11 558.28" stroke="rgba(233, 199, 203, 1)" stroke-width="1.5"></path><path d="M53.67 540.55L53.67 540.55" stroke="rgba(233, 199, 203, 1)" stroke-width="1.5"></path><path d="M53.67 540.55L105.3 649.18" stroke="rgba(233, 199, 203, 1)" stroke-width="1.5"></path><path d="M53.67 540.55L256.11 558.28" stroke="rgba(233, 199, 203, 1)" stroke-width="1.5"></path><path d="M53.67 540.55L233.71 646.97" stroke="rgba(233, 199, 203, 1)" stroke-width="1.5"></path><path d="M105.3 649.18L105.3 649.18" stroke="rgba(233, 199, 203, 1)" stroke-width="1.5"></path><path d="M105.3 649.18L233.71 646.97" stroke="rgba(233, 199, 203, 1)" stroke-width="1.5"></path><path d="M105.3 649.18L256.11 558.28" stroke="rgba(233, 199, 203, 1)" stroke-width="1.5"></path><path d="M105.3 649.18L365.19 688.16" stroke="rgba(233, 199, 203, 1)" stroke-width="1.5"></path><path d="M105.3 649.18L107.97 350.64" stroke="rgba(233, 199, 203, 1)" stroke-width="1.5"></path><path d="M256.11 558.28L256.11 558.28" stroke="rgba(233, 199, 203, 1)" stroke-width="1.5"></path><path d="M256.11 558.28L233.71 646.97" stroke="rgba(233, 199, 203, 1)" stroke-width="1.5"></path><path d="M256.11 558.28L382.54 502.38" stroke="rgba(233, 199, 203, 1)" stroke-width="1.5"></path><path d="M256.11 558.28L365.19 688.16" stroke="rgba(233, 199, 203, 1)" stroke-width="1.5"></path><path d="M256.11 558.28L391.88 362.62" stroke="rgba(233, 199, 203, 1)" stroke-width="1.5"></path><path d="M233.71 646.97L233.71 646.97" stroke="rgba(233, 199, 203, 1)" stroke-width="1.5"></path><path d="M391.88 362.62L391.88 362.62" stroke="rgba(233, 199, 203, 1)" stroke-width="1.5"></path><path d="M391.88 362.62L382.54 502.38" stroke="rgba(233, 199, 203, 1)" stroke-width="1.5"></path><path d="M391.88 362.62L556.42 407.11" stroke="rgba(233, 199, 203, 1)" stroke-width="1.5"></path><path d="M382.54 502.38L382.54 502.38" stroke="rgba(233, 199, 203, 1)" stroke-width="1.5"></path><path d="M382.54 502.38L521.36 546.63" stroke="rgba(233, 199, 203, 1)" stroke-width="1.5"></path><path d="M365.19 688.16L365.19 688.16" stroke="rgba(233, 199, 203, 1)" stroke-width="1.5"></path><path d="M365.19 688.16L233.71 646.97" stroke="rgba(233, 199, 203, 1)" stroke-width="1.5"></path><path d="M556.42 407.11L556.42 407.11" stroke="rgba(233, 199, 203, 1)" stroke-width="1.5"></path><path d="M556.42 407.11L672.41 391.41" stroke="rgba(233, 199, 203, 1)" stroke-width="1.5"></path><path d="M556.42 407.11L521.36 546.63" stroke="rgba(233, 199, 203, 1)" stroke-width="1.5"></path><path d="M556.42 407.11L688.65 530.93" stroke="rgba(233, 199, 203, 1)" stroke-width="1.5"></path><path d="M521.36 546.63L521.36 546.63" stroke="rgba(233, 199, 203, 1)" stroke-width="1.5"></path><path d="M521.36 546.63L543.26 661.18" stroke="rgba(233, 199, 203, 1)" stroke-width="1.5"></path><path d="M521.36 546.63L688.65 530.93" stroke="rgba(233, 199, 203, 1)" stroke-width="1.5"></path><path d="M543.26 661.18L543.26 661.18" stroke="rgba(233, 199, 203, 1)" stroke-width="1.5"></path><path d="M543.26 661.18L365.19 688.16" stroke="rgba(233, 199, 203, 1)" stroke-width="1.5"></path><path d="M543.26 661.18L688.65 530.93" stroke="rgba(233, 199, 203, 1)" stroke-width="1.5"></path><path d="M675.48 254.66L675.48 254.66" stroke="rgba(233, 199, 203, 1)" stroke-width="1.5"></path><path d="M675.48 254.66L672.41 391.41" stroke="rgba(233, 199, 203, 1)" stroke-width="1.5"></path><path d="M675.48 254.66L852.96 243.81" stroke="rgba(233, 199, 203, 1)" stroke-width="1.5"></path><path d="M675.48 254.66L556.42 407.11" stroke="rgba(233, 199, 203, 1)" stroke-width="1.5"></path><path d="M672.41 391.41L672.41 391.41" stroke="rgba(233, 199, 203, 1)" stroke-width="1.5"></path><path d="M672.41 391.41L688.65 530.93" stroke="rgba(233, 199, 203, 1)" stroke-width="1.5"></path><path d="M672.41 391.41L858.74 402.56" stroke="rgba(233, 199, 203, 1)" stroke-width="1.5"></path><path d="M672.41 391.41L521.36 546.63" stroke="rgba(233, 199, 203, 1)" stroke-width="1.5"></path><path d="M672.41 391.41L853.37 510.47" stroke="rgba(233, 199, 203, 1)" stroke-width="1.5"></path><path d="M688.65 530.93L688.65 530.93" stroke="rgba(233, 199, 203, 1)" stroke-width="1.5"></path><path d="M688.65 530.93L853.37 510.47" stroke="rgba(233, 199, 203, 1)" stroke-width="1.5"></path><path d="M852.96 243.81L852.96 243.81" stroke="rgba(233, 199, 203, 1)" stroke-width="1.5"></path><path d="M852.96 243.81L992.26 235.9" stroke="rgba(233, 199, 203, 1)" stroke-width="1.5"></path><path d="M852.96 243.81L858.74 402.56" stroke="rgba(233, 199, 203, 1)" stroke-width="1.5"></path><path d="M852.96 243.81L672.41 391.41" stroke="rgba(233, 199, 203, 1)" stroke-width="1.5"></path><path d="M852.96 243.81L853.37 510.47" stroke="rgba(233, 199, 203, 1)" stroke-width="1.5"></path><path d="M852.96 243.81L1150.09 188.7" stroke="rgba(233, 199, 203, 1)" stroke-width="1.5"></path><path d="M858.74 402.56L858.74 402.56" stroke="rgba(233, 199, 203, 1)" stroke-width="1.5"></path><path d="M858.74 402.56L853.37 510.47" stroke="rgba(233, 199, 203, 1)" stroke-width="1.5"></path><path d="M858.74 402.56L986.34 547.66" stroke="rgba(233, 199, 203, 1)" stroke-width="1.5"></path><path d="M858.74 402.56L688.65 530.93" stroke="rgba(233, 199, 203, 1)" stroke-width="1.5"></path><path d="M853.37 510.47L853.37 510.47" stroke="rgba(233, 199, 203, 1)" stroke-width="1.5"></path><path d="M853.37 510.47L986.34 547.66" stroke="rgba(233, 199, 203, 1)" stroke-width="1.5"></path><path d="M853.37 510.47L854.27 649.58" stroke="rgba(233, 199, 203, 1)" stroke-width="1.5"></path><path d="M854.27 649.58L854.27 649.58" stroke="rgba(233, 199, 203, 1)" stroke-width="1.5"></path><path d="M854.27 649.58L1002.48 691.28" stroke="rgba(233, 199, 203, 1)" stroke-width="1.5"></path><path d="M970.99 -38.73L970.99 -38.73" stroke="rgba(233, 199, 203, 1)" stroke-width="1.5"></path><path d="M970.99 -38.73L1132.43 54.3" stroke="rgba(233, 199, 203, 1)" stroke-width="1.5"></path><path d="M970.99 -38.73L1162.04 -54" stroke="rgba(233, 199, 203, 1)" stroke-width="1.5"></path><path d="M970.99 -38.73L992.26 235.9" stroke="rgba(233, 199, 203, 1)" stroke-width="1.5"></path><path d="M970.99 -38.73L1241.72 60.79" stroke="rgba(233, 199, 203, 1)" stroke-width="1.5"></path><path d="M970.99 -38.73L1257.78 -70.22" stroke="rgba(233, 199, 203, 1)" stroke-width="1.5"></path><path d="M992.26 235.9L992.26 235.9" stroke="rgba(233, 199, 203, 1)" stroke-width="1.5"></path><path d="M992.26 235.9L1150.09 188.7" stroke="rgba(233, 199, 203, 1)" stroke-width="1.5"></path><path d="M992.26 235.9L1157.64 351.43" stroke="rgba(233, 199, 203, 1)" stroke-width="1.5"></path><path d="M992.26 235.9L858.74 402.56" stroke="rgba(233, 199, 203, 1)" stroke-width="1.5"></path><path d="M992.26 235.9L1132.43 54.3" stroke="rgba(233, 199, 203, 1)" stroke-width="1.5"></path><path d="M986.34 547.66L986.34 547.66" stroke="rgba(233, 199, 203, 1)" stroke-width="1.5"></path><path d="M986.34 547.66L1002.48 691.28" stroke="rgba(233, 199, 203, 1)" stroke-width="1.5"></path><path d="M986.34 547.66L1148.24 513.33" stroke="rgba(233, 199, 203, 1)" stroke-width="1.5"></path><path d="M986.34 547.66L854.27 649.58" stroke="rgba(233, 199, 203, 1)" stroke-width="1.5"></path><path d="M986.34 547.66L1144.97 699.08" stroke="rgba(233, 199, 203, 1)" stroke-width="1.5"></path><path d="M1002.48 691.28L1002.48 691.28" stroke="rgba(233, 199, 203, 1)" stroke-width="1.5"></path><path d="M1002.48 691.28L1144.97 699.08" stroke="rgba(233, 199, 203, 1)" stroke-width="1.5"></path><path d="M1162.04 -54L1162.04 -54" stroke="rgba(233, 199, 203, 1)" stroke-width="1.5"></path><path d="M1162.04 -54L1257.78 -70.22" stroke="rgba(233, 199, 203, 1)" stroke-width="1.5"></path><path d="M1162.04 -54L1132.43 54.3" stroke="rgba(233, 199, 203, 1)" stroke-width="1.5"></path><path d="M1162.04 -54L1241.72 60.79" stroke="rgba(233, 199, 203, 1)" stroke-width="1.5"></path><path d="M1162.04 -54L1150.09 188.7" stroke="rgba(233, 199, 203, 1)" stroke-width="1.5"></path><path d="M1132.43 54.3L1132.43 54.3" stroke="rgba(233, 199, 203, 1)" stroke-width="1.5"></path><path d="M1132.43 54.3L1241.72 60.79" stroke="rgba(233, 199, 203, 1)" stroke-width="1.5"></path><path d="M1132.43 54.3L1150.09 188.7" stroke="rgba(233, 199, 203, 1)" stroke-width="1.5"></path><path d="M1132.43 54.3L1257.78 -70.22" stroke="rgba(233, 199, 203, 1)" stroke-width="1.5"></path><path d="M1150.09 188.7L1150.09 188.7" stroke="rgba(233, 199, 203, 1)" stroke-width="1.5"></path><path d="M1150.09 188.7L1241.72 60.79" stroke="rgba(233, 199, 203, 1)" stroke-width="1.5"></path><path d="M1150.09 188.7L1157.64 351.43" stroke="rgba(233, 199, 203, 1)" stroke-width="1.5"></path><path d="M1150.09 188.7L1295.48 262.47" stroke="rgba(233, 199, 203, 1)" stroke-width="1.5"></path><path d="M1150.09 188.7L1239.41 376.68" stroke="rgba(233, 199, 203, 1)" stroke-width="1.5"></path><path d="M1157.64 351.43L1157.64 351.43" stroke="rgba(233, 199, 203, 1)" stroke-width="1.5"></path><path d="M1157.64 351.43L1239.41 376.68" stroke="rgba(233, 199, 203, 1)" stroke-width="1.5"></path><path d="M1157.64 351.43L1148.24 513.33" stroke="rgba(233, 199, 203, 1)" stroke-width="1.5"></path><path d="M1148.24 513.33L1148.24 513.33" stroke="rgba(233, 199, 203, 1)" stroke-width="1.5"></path><path d="M1148.24 513.33L1277.73 495.11" stroke="rgba(233, 199, 203, 1)" stroke-width="1.5"></path><path d="M1144.97 699.08L1144.97 699.08" stroke="rgba(233, 199, 203, 1)" stroke-width="1.5"></path><path d="M1144.97 699.08L1298.32 695.06" stroke="rgba(233, 199, 203, 1)" stroke-width="1.5"></path><path d="M1144.97 699.08L1148.24 513.33" stroke="rgba(233, 199, 203, 1)" stroke-width="1.5"></path><path d="M1144.97 699.08L1277.73 495.11" stroke="rgba(233, 199, 203, 1)" stroke-width="1.5"></path><path d="M1144.97 699.08L1408.39 692.19" stroke="rgba(233, 199, 203, 1)" stroke-width="1.5"></path><path d="M1257.78 -70.22L1257.78 -70.22" stroke="rgba(233, 199, 203, 1)" stroke-width="1.5"></path><path d="M1257.78 -70.22L1241.72 60.79" stroke="rgba(233, 199, 203, 1)" stroke-width="1.5"></path><path d="M1241.72 60.79L1241.72 60.79" stroke="rgba(233, 199, 203, 1)" stroke-width="1.5"></path><path d="M1295.48 262.47L1295.48 262.47" stroke="rgba(233, 199, 203, 1)" stroke-width="1.5"></path><path d="M1295.48 262.47L1239.41 376.68" stroke="rgba(233, 199, 203, 1)" stroke-width="1.5"></path><path d="M1295.48 262.47L1442.15 208.73" stroke="rgba(233, 199, 203, 1)" stroke-width="1.5"></path><path d="M1239.41 376.68L1239.41 376.68" stroke="rgba(233, 199, 203, 1)" stroke-width="1.5"></path><path d="M1239.41 376.68L1277.73 495.11" stroke="rgba(233, 199, 203, 1)" stroke-width="1.5"></path><path d="M1277.73 495.11L1277.73 495.11" stroke="rgba(233, 199, 203, 1)" stroke-width="1.5"></path><path d="M1298.32 695.06L1298.32 695.06" stroke="rgba(233, 199, 203, 1)" stroke-width="1.5"></path><path d="M1298.32 695.06L1408.39 692.19" stroke="rgba(233, 199, 203, 1)" stroke-width="1.5"></path><path d="M1298.32 695.06L1277.73 495.11" stroke="rgba(233, 199, 203, 1)" stroke-width="1.5"></path><path d="M1298.32 695.06L1419.48 523.73" stroke="rgba(233, 199, 203, 1)" stroke-width="1.5"></path><path d="M1298.32 695.06L1148.24 513.33" stroke="rgba(233, 199, 203, 1)" stroke-width="1.5"></path><path d="M1298.32 695.06L1002.48 691.28" stroke="rgba(233, 199, 203, 1)" stroke-width="1.5"></path><path d="M1407.16 -38.67L1407.16 -38.67" stroke="rgba(233, 199, 203, 1)" stroke-width="1.5"></path><path d="M1407.16 -38.67L1257.78 -70.22" stroke="rgba(233, 199, 203, 1)" stroke-width="1.5"></path><path d="M1407.16 -38.67L1550.97 43.11" stroke="rgba(233, 199, 203, 1)" stroke-width="1.5"></path><path d="M1407.16 -38.67L1583.47 -38.08" stroke="rgba(233, 199, 203, 1)" stroke-width="1.5"></path><path d="M1407.16 -38.67L1241.72 60.79" stroke="rgba(233, 199, 203, 1)" stroke-width="1.5"></path><path d="M1442.15 208.73L1442.15 208.73" stroke="rgba(233, 199, 203, 1)" stroke-width="1.5"></path><path d="M1442.15 208.73L1540.71 246.91" stroke="rgba(233, 199, 203, 1)" stroke-width="1.5"></path><path d="M1442.15 208.73L1426.78 383.67" stroke="rgba(233, 199, 203, 1)" stroke-width="1.5"></path><path d="M1442.15 208.73L1550.97 43.11" stroke="rgba(233, 199, 203, 1)" stroke-width="1.5"></path><path d="M1442.15 208.73L1594.97 391.59" stroke="rgba(233, 199, 203, 1)" stroke-width="1.5"></path><path d="M1442.15 208.73L1241.72 60.79" stroke="rgba(233, 199, 203, 1)" stroke-width="1.5"></path><path d="M1426.78 383.67L1426.78 383.67" stroke="rgba(233, 199, 203, 1)" stroke-width="1.5"></path><path d="M1426.78 383.67L1419.48 523.73" stroke="rgba(233, 199, 203, 1)" stroke-width="1.5"></path><path d="M1426.78 383.67L1594.97 391.59" stroke="rgba(233, 199, 203, 1)" stroke-width="1.5"></path><path d="M1419.48 523.73L1419.48 523.73" stroke="rgba(233, 199, 203, 1)" stroke-width="1.5"></path><path d="M1419.48 523.73L1277.73 495.11" stroke="rgba(233, 199, 203, 1)" stroke-width="1.5"></path><path d="M1419.48 523.73L1572.81 550.38" stroke="rgba(233, 199, 203, 1)" stroke-width="1.5"></path><path d="M1419.48 523.73L1408.39 692.19" stroke="rgba(233, 199, 203, 1)" stroke-width="1.5"></path><path d="M1419.48 523.73L1602.61 640.85" stroke="rgba(233, 199, 203, 1)" stroke-width="1.5"></path><path d="M1408.39 692.19L1408.39 692.19" stroke="rgba(233, 199, 203, 1)" stroke-width="1.5"></path><path d="M1408.39 692.19L1602.61 640.85" stroke="rgba(233, 199, 203, 1)" stroke-width="1.5"></path><path d="M1408.39 692.19L1572.81 550.38" stroke="rgba(233, 199, 203, 1)" stroke-width="1.5"></path><path d="M1583.47 -38.08L1583.47 -38.08" stroke="rgba(233, 199, 203, 1)" stroke-width="1.5"></path><path d="M1583.47 -38.08L1550.97 43.11" stroke="rgba(233, 199, 203, 1)" stroke-width="1.5"></path><path d="M1583.47 -38.08L1442.15 208.73" stroke="rgba(233, 199, 203, 1)" stroke-width="1.5"></path><path d="M1583.47 -38.08L1540.71 246.91" stroke="rgba(233, 199, 203, 1)" stroke-width="1.5"></path><path d="M1583.47 -38.08L1257.78 -70.22" stroke="rgba(233, 199, 203, 1)" stroke-width="1.5"></path><path d="M1583.47 -38.08L1241.72 60.79" stroke="rgba(233, 199, 203, 1)" stroke-width="1.5"></path><path d="M1550.97 43.11L1550.97 43.11" stroke="rgba(233, 199, 203, 1)" stroke-width="1.5"></path><path d="M1550.97 43.11L1540.71 246.91" stroke="rgba(233, 199, 203, 1)" stroke-width="1.5"></path><path d="M1550.97 43.11L1241.72 60.79" stroke="rgba(233, 199, 203, 1)" stroke-width="1.5"></path><path d="M1550.97 43.11L1257.78 -70.22" stroke="rgba(233, 199, 203, 1)" stroke-width="1.5"></path><path d="M1540.71 246.91L1540.71 246.91" stroke="rgba(233, 199, 203, 1)" stroke-width="1.5"></path><path d="M1540.71 246.91L1594.97 391.59" stroke="rgba(233, 199, 203, 1)" stroke-width="1.5"></path><path d="M1540.71 246.91L1426.78 383.67" stroke="rgba(233, 199, 203, 1)" stroke-width="1.5"></path><path d="M1540.71 246.91L1295.48 262.47" stroke="rgba(233, 199, 203, 1)" stroke-width="1.5"></path><path d="M1594.97 391.59L1594.97 391.59" stroke="rgba(233, 199, 203, 1)" stroke-width="1.5"></path><path d="M1594.97 391.59L1572.81 550.38" stroke="rgba(233, 199, 203, 1)" stroke-width="1.5"></path><path d="M1594.97 391.59L1419.48 523.73" stroke="rgba(233, 199, 203, 1)" stroke-width="1.5"></path><path d="M1572.81 550.38L1572.81 550.38" stroke="rgba(233, 199, 203, 1)" stroke-width="1.5"></path><path d="M1572.81 550.38L1602.61 640.85" stroke="rgba(233, 199, 203, 1)" stroke-width="1.5"></path><path d="M1572.81 550.38L1426.78 383.67" stroke="rgba(233, 199, 203, 1)" stroke-width="1.5"></path><path d="M1572.81 550.38L1277.73 495.11" stroke="rgba(233, 199, 203, 1)" stroke-width="1.5"></path><path d="M1602.61 640.85L1602.61 640.85" stroke="rgba(233, 199, 203, 1)" stroke-width="1.5"></path><path d="M1602.61 640.85L1594.97 391.59" stroke="rgba(233, 199, 203, 1)" stroke-width="1.5"></path><path d="M1602.61 640.85L1298.32 695.06" stroke="rgba(233, 199, 203, 1)" stroke-width="1.5"></path><circle r="5" cx="-63.89" cy="354.64" fill="rgba(233, 199, 203, 1)"></circle><circle r="5" cx="-76.27" cy="711.54" fill="rgba(233, 199, 203, 1)"></circle><circle r="5" cx="107.97" cy="350.64" fill="rgba(233, 199, 203, 1)"></circle><circle r="5" cx="53.67" cy="540.55" fill="rgba(233, 199, 203, 1)"></circle><circle r="5" cx="105.3" cy="649.18" fill="rgba(233, 199, 203, 1)"></circle><circle r="5" cx="256.11" cy="558.28" fill="rgba(233, 199, 203, 1)"></circle><circle r="5" cx="233.71" cy="646.97" fill="rgba(233, 199, 203, 1)"></circle><circle r="5" cx="391.88" cy="362.62" fill="rgba(233, 199, 203, 1)"></circle><circle r="5" cx="382.54" cy="502.38" fill="rgba(233, 199, 203, 1)"></circle><circle r="5" cx="365.19" cy="688.16" fill="rgba(233, 199, 203, 1)"></circle><circle r="5" cx="556.42" cy="407.11" fill="rgba(233, 199, 203, 1)"></circle><circle r="5" cx="521.36" cy="546.63" fill="rgba(233, 199, 203, 1)"></circle><circle r="5" cx="543.26" cy="661.18" fill="rgba(233, 199, 203, 1)"></circle><circle r="5" cx="675.48" cy="254.66" fill="rgba(233, 199, 203, 1)"></circle><circle r="5" cx="672.41" cy="391.41" fill="rgba(233, 199, 203, 1)"></circle><circle r="5" cx="688.65" cy="530.93" fill="rgba(233, 199, 203, 1)"></circle><circle r="5" cx="852.96" cy="243.81" fill="rgba(233, 199, 203, 1)"></circle><circle r="5" cx="858.74" cy="402.56" fill="rgba(233, 199, 203, 1)"></circle><circle r="5" cx="853.37" cy="510.47" fill="rgba(233, 199, 203, 1)"></circle><circle r="5" cx="854.27" cy="649.58" fill="rgba(233, 199, 203, 1)"></circle><circle r="5" cx="970.99" cy="-38.73" fill="rgba(233, 199, 203, 1)"></circle><circle r="5" cx="992.26" cy="235.9" fill="rgba(233, 199, 203, 1)"></circle><circle r="5" cx="986.34" cy="547.66" fill="rgba(233, 199, 203, 1)"></circle><circle r="5" cx="1002.48" cy="691.28" fill="rgba(233, 199, 203, 1)"></circle><circle r="5" cx="1162.04" cy="-54" fill="rgba(233, 199, 203, 1)"></circle><circle r="5" cx="1132.43" cy="54.3" fill="rgba(233, 199, 203, 1)"></circle><circle r="5" cx="1150.09" cy="188.7" fill="rgba(233, 199, 203, 1)"></circle><circle r="5" cx="1157.64" cy="351.43" fill="rgba(233, 199, 203, 1)"></circle><circle r="5" cx="1148.24" cy="513.33" fill="rgba(233, 199, 203, 1)"></circle><circle r="5" cx="1144.97" cy="699.08" fill="rgba(233, 199, 203, 1)"></circle><circle r="5" cx="1257.78" cy="-70.22" fill="rgba(233, 199, 203, 1)"></circle><circle r="5" cx="1241.72" cy="60.79" fill="rgba(233, 199, 203, 1)"></circle><circle r="5" cx="1295.48" cy="262.47" fill="rgba(233, 199, 203, 1)"></circle><circle r="5" cx="1239.41" cy="376.68" fill="rgba(233, 199, 203, 1)"></circle><circle r="5" cx="1277.73" cy="495.11" fill="rgba(233, 199, 203, 1)"></circle><circle r="5" cx="1298.32" cy="695.06" fill="rgba(233, 199, 203, 1)"></circle><circle r="5" cx="1407.16" cy="-38.67" fill="rgba(233, 199, 203, 1)"></circle><circle r="5" cx="1442.15" cy="208.73" fill="rgba(233, 199, 203, 1)"></circle><circle r="5" cx="1426.78" cy="383.67" fill="rgba(233, 199, 203, 1)"></circle><circle r="5" cx="1419.48" cy="523.73" fill="rgba(233, 199, 203, 1)"></circle><circle r="5" cx="1408.39" cy="692.19" fill="rgba(233, 199, 203, 1)"></circle><circle r="5" cx="1583.47" cy="-38.08" fill="rgba(233, 199, 203, 1)"></circle><circle r="5" cx="1550.97" cy="43.11" fill="rgba(233, 199, 203, 1)"></circle><circle r="5" cx="1540.71" cy="246.91" fill="rgba(233, 199, 203, 1)"></circle><circle r="5" cx="1594.97" cy="391.59" fill="rgba(233, 199, 203, 1)"></circle><circle r="5" cx="1572.81" cy="550.38" fill="rgba(233, 199, 203, 1)"></circle><circle r="5" cx="1602.61" cy="640.85" fill="rgba(233, 199, 203, 1)"></circle><path d="M793.17 355.73L793.17 355.73" stroke="hsl(0, 90.4%, 63.7%)" stroke-width="1.5"></path><path d="M793.17 355.73L789.19 532.12" stroke="hsl(0, 90.4%, 63.7%)" stroke-width="1.5"></path><path d="M793.17 355.73L664.2 519.18" stroke="hsl(0, 90.4%, 63.7%)" stroke-width="1.5"></path><path d="M793.17 355.73L952.8 496.22" stroke="hsl(0, 90.4%, 63.7%)" stroke-width="1.5"></path><path d="M793.17 355.73L800.28 656.49" stroke="hsl(0, 90.4%, 63.7%)" stroke-width="1.5"></path><path d="M793.17 355.73L543.59 545.51" stroke="hsl(0, 90.4%, 63.7%)" stroke-width="1.5"></path><path d="M793.17 355.73L970.31 644.93" stroke="hsl(0, 90.4%, 63.7%)" stroke-width="1.5"></path><path d="M1127.24 711.7L1127.24 711.7" stroke="hsl(0, 90.4%, 63.7%)" stroke-width="1.5"></path><path d="M1127.24 711.7L1248.59 708.76" stroke="hsl(0, 90.4%, 63.7%)" stroke-width="1.5"></path><path d="M1127.24 711.7L970.31 644.93" stroke="hsl(0, 90.4%, 63.7%)" stroke-width="1.5"></path><path d="M1127.24 711.7L1238.99 517.99" stroke="hsl(0, 90.4%, 63.7%)" stroke-width="1.5"></path><path d="M1127.24 711.7L1387.63 647.65" stroke="hsl(0, 90.4%, 63.7%)" stroke-width="1.5"></path><path d="M1238.99 517.99L1238.99 517.99" stroke="hsl(0, 90.4%, 63.7%)" stroke-width="1.5"></path><path d="M1238.99 517.99L1392.98 561.04" stroke="hsl(0, 90.4%, 63.7%)" stroke-width="1.5"></path><path d="M1238.99 517.99L1248.59 708.76" stroke="hsl(0, 90.4%, 63.7%)" stroke-width="1.5"></path><path d="M1248.59 708.76L1248.59 708.76" stroke="hsl(0, 90.4%, 63.7%)" stroke-width="1.5"></path><path d="M1248.59 708.76L1387.63 647.65" stroke="hsl(0, 90.4%, 63.7%)" stroke-width="1.5"></path><path d="M1248.59 708.76L1392.98 561.04" stroke="hsl(0, 90.4%, 63.7%)" stroke-width="1.5"></path><path d="M1248.59 708.76L970.31 644.93" stroke="hsl(0, 90.4%, 63.7%)" stroke-width="1.5"></path><path d="M1248.59 708.76L1545.4 646.12" stroke="hsl(0, 90.4%, 63.7%)" stroke-width="1.5"></path><path d="M1549.7 95.95L1549.7 95.95" stroke="hsl(0, 90.4%, 63.7%)" stroke-width="1.5"></path><path d="M1549.7 95.95L1439.81 195.47" stroke="hsl(0, 90.4%, 63.7%)" stroke-width="1.5"></path><path d="M1549.7 95.95L1400.22 72.88" stroke="hsl(0, 90.4%, 63.7%)" stroke-width="1.5"></path><path d="M1549.7 95.95L1611.92 246.31" stroke="hsl(0, 90.4%, 63.7%)" stroke-width="1.5"></path><path d="M1549.7 95.95L1455.81 -43.69" stroke="hsl(0, 90.4%, 63.7%)" stroke-width="1.5"></path><path d="M1611.92 246.31L1611.92 246.31" stroke="hsl(0, 90.4%, 63.7%)" stroke-width="1.5"></path><path d="M1611.92 246.31L1586.06 350.48" stroke="hsl(0, 90.4%, 63.7%)" stroke-width="1.5"></path><path d="M1611.92 246.31L1439.81 195.47" stroke="hsl(0, 90.4%, 63.7%)" stroke-width="1.5"></path><path d="M-83.36 539.11L-83.36 539.11" stroke="hsl(0, 90.4%, 63.7%)" stroke-width="1.5"></path><path d="M-83.36 539.11L-107.49 672.71" stroke="hsl(0, 90.4%, 63.7%)" stroke-width="1.5"></path><path d="M-83.36 539.11L105.75 684.51" stroke="hsl(0, 90.4%, 63.7%)" stroke-width="1.5"></path><path d="M-83.36 539.11L205.89 510.24" stroke="hsl(0, 90.4%, 63.7%)" stroke-width="1.5"></path><path d="M-83.36 539.11L374.17 498.94" stroke="hsl(0, 90.4%, 63.7%)" stroke-width="1.5"></path><path d="M-83.36 539.11L377.9 708.38" stroke="hsl(0, 90.4%, 63.7%)" stroke-width="1.5"></path><path d="M-107.49 672.71L-107.49 672.71" stroke="hsl(0, 90.4%, 63.7%)" stroke-width="1.5"></path><path d="M105.75 684.51L105.75 684.51" stroke="hsl(0, 90.4%, 63.7%)" stroke-width="1.5"></path><path d="M105.75 684.51L205.89 510.24" stroke="hsl(0, 90.4%, 63.7%)" stroke-width="1.5"></path><path d="M105.75 684.51L-107.49 672.71" stroke="hsl(0, 90.4%, 63.7%)" stroke-width="1.5"></path><path d="M105.75 684.51L377.9 708.38" stroke="hsl(0, 90.4%, 63.7%)" stroke-width="1.5"></path><path d="M105.75 684.51L374.17 498.94" stroke="hsl(0, 90.4%, 63.7%)" stroke-width="1.5"></path><path d="M105.75 684.51L525.71 695.37" stroke="hsl(0, 90.4%, 63.7%)" stroke-width="1.5"></path><path d="M205.89 510.24L205.89 510.24" stroke="hsl(0, 90.4%, 63.7%)" stroke-width="1.5"></path><path d="M205.89 510.24L374.17 498.94" stroke="hsl(0, 90.4%, 63.7%)" stroke-width="1.5"></path><path d="M205.89 510.24L377.9 708.38" stroke="hsl(0, 90.4%, 63.7%)" stroke-width="1.5"></path><path d="M374.17 498.94L374.17 498.94" stroke="hsl(0, 90.4%, 63.7%)" stroke-width="1.5"></path><path d="M374.17 498.94L543.59 545.51" stroke="hsl(0, 90.4%, 63.7%)" stroke-width="1.5"></path><path d="M377.9 708.38L377.9 708.38" stroke="hsl(0, 90.4%, 63.7%)" stroke-width="1.5"></path><path d="M377.9 708.38L525.71 695.37" stroke="hsl(0, 90.4%, 63.7%)" stroke-width="1.5"></path><path d="M377.9 708.38L374.17 498.94" stroke="hsl(0, 90.4%, 63.7%)" stroke-width="1.5"></path><path d="M377.9 708.38L543.59 545.51" stroke="hsl(0, 90.4%, 63.7%)" stroke-width="1.5"></path><path d="M543.59 545.51L543.59 545.51" stroke="hsl(0, 90.4%, 63.7%)" stroke-width="1.5"></path><path d="M543.59 545.51L664.2 519.18" stroke="hsl(0, 90.4%, 63.7%)" stroke-width="1.5"></path><path d="M543.59 545.51L525.71 695.37" stroke="hsl(0, 90.4%, 63.7%)" stroke-width="1.5"></path><path d="M525.71 695.37L525.71 695.37" stroke="hsl(0, 90.4%, 63.7%)" stroke-width="1.5"></path><path d="M664.2 519.18L664.2 519.18" stroke="hsl(0, 90.4%, 63.7%)" stroke-width="1.5"></path><path d="M664.2 519.18L789.19 532.12" stroke="hsl(0, 90.4%, 63.7%)" stroke-width="1.5"></path><path d="M664.2 519.18L676.29 705.91" stroke="hsl(0, 90.4%, 63.7%)" stroke-width="1.5"></path><path d="M664.2 519.18L800.28 656.49" stroke="hsl(0, 90.4%, 63.7%)" stroke-width="1.5"></path><path d="M676.29 705.91L676.29 705.91" stroke="hsl(0, 90.4%, 63.7%)" stroke-width="1.5"></path><path d="M676.29 705.91L800.28 656.49" stroke="hsl(0, 90.4%, 63.7%)" stroke-width="1.5"></path><path d="M676.29 705.91L525.71 695.37" stroke="hsl(0, 90.4%, 63.7%)" stroke-width="1.5"></path><path d="M676.29 705.91L789.19 532.12" stroke="hsl(0, 90.4%, 63.7%)" stroke-width="1.5"></path><path d="M789.19 532.12L789.19 532.12" stroke="hsl(0, 90.4%, 63.7%)" stroke-width="1.5"></path><path d="M789.19 532.12L800.28 656.49" stroke="hsl(0, 90.4%, 63.7%)" stroke-width="1.5"></path><path d="M789.19 532.12L952.8 496.22" stroke="hsl(0, 90.4%, 63.7%)" stroke-width="1.5"></path><path d="M800.28 656.49L800.28 656.49" stroke="hsl(0, 90.4%, 63.7%)" stroke-width="1.5"></path><path d="M800.28 656.49L970.31 644.93" stroke="hsl(0, 90.4%, 63.7%)" stroke-width="1.5"></path><path d="M952.8 496.22L952.8 496.22" stroke="hsl(0, 90.4%, 63.7%)" stroke-width="1.5"></path><path d="M952.8 496.22L970.31 644.93" stroke="hsl(0, 90.4%, 63.7%)" stroke-width="1.5"></path><path d="M952.8 496.22L800.28 656.49" stroke="hsl(0, 90.4%, 63.7%)" stroke-width="1.5"></path><path d="M952.8 496.22L1127.24 711.7" stroke="hsl(0, 90.4%, 63.7%)" stroke-width="1.5"></path><path d="M952.8 496.22L1238.99 517.99" stroke="hsl(0, 90.4%, 63.7%)" stroke-width="1.5"></path><path d="M970.31 644.93L970.31 644.93" stroke="hsl(0, 90.4%, 63.7%)" stroke-width="1.5"></path><path d="M970.31 644.93L789.19 532.12" stroke="hsl(0, 90.4%, 63.7%)" stroke-width="1.5"></path><path d="M970.31 644.93L1238.99 517.99" stroke="hsl(0, 90.4%, 63.7%)" stroke-width="1.5"></path><path d="M1132.32 94.6L1132.32 94.6" stroke="hsl(0, 90.4%, 63.7%)" stroke-width="1.5"></path><path d="M1132.32 94.6L1101.68 194.08" stroke="hsl(0, 90.4%, 63.7%)" stroke-width="1.5"></path><path d="M1132.32 94.6L1240.49 111.4" stroke="hsl(0, 90.4%, 63.7%)" stroke-width="1.5"></path><path d="M1132.32 94.6L1273.95 188.2" stroke="hsl(0, 90.4%, 63.7%)" stroke-width="1.5"></path><path d="M1101.68 194.08L1101.68 194.08" stroke="hsl(0, 90.4%, 63.7%)" stroke-width="1.5"></path><path d="M1101.68 194.08L1240.49 111.4" stroke="hsl(0, 90.4%, 63.7%)" stroke-width="1.5"></path><path d="M1101.68 194.08L1273.95 188.2" stroke="hsl(0, 90.4%, 63.7%)" stroke-width="1.5"></path><path d="M1101.68 194.08L1249.56 -54.61" stroke="hsl(0, 90.4%, 63.7%)" stroke-width="1.5"></path><path d="M1101.68 194.08L1400.22 72.88" stroke="hsl(0, 90.4%, 63.7%)" stroke-width="1.5"></path><path d="M1101.68 194.08L952.8 496.22" stroke="hsl(0, 90.4%, 63.7%)" stroke-width="1.5"></path><path d="M1249.56 -54.61L1249.56 -54.61" stroke="hsl(0, 90.4%, 63.7%)" stroke-width="1.5"></path><path d="M1249.56 -54.61L1240.49 111.4" stroke="hsl(0, 90.4%, 63.7%)" stroke-width="1.5"></path><path d="M1249.56 -54.61L1132.32 94.6" stroke="hsl(0, 90.4%, 63.7%)" stroke-width="1.5"></path><path d="M1249.56 -54.61L1400.22 72.88" stroke="hsl(0, 90.4%, 63.7%)" stroke-width="1.5"></path><path d="M1249.56 -54.61L1455.81 -43.69" stroke="hsl(0, 90.4%, 63.7%)" stroke-width="1.5"></path><path d="M1249.56 -54.61L1273.95 188.2" stroke="hsl(0, 90.4%, 63.7%)" stroke-width="1.5"></path><path d="M1240.49 111.4L1240.49 111.4" stroke="hsl(0, 90.4%, 63.7%)" stroke-width="1.5"></path><path d="M1240.49 111.4L1273.95 188.2" stroke="hsl(0, 90.4%, 63.7%)" stroke-width="1.5"></path><path d="M1240.49 111.4L1400.22 72.88" stroke="hsl(0, 90.4%, 63.7%)" stroke-width="1.5"></path><path d="M1273.95 188.2L1273.95 188.2" stroke="hsl(0, 90.4%, 63.7%)" stroke-width="1.5"></path><path d="M1273.95 188.2L1439.81 195.47" stroke="hsl(0, 90.4%, 63.7%)" stroke-width="1.5"></path><path d="M1455.81 -43.69L1455.81 -43.69" stroke="hsl(0, 90.4%, 63.7%)" stroke-width="1.5"></path><path d="M1455.81 -43.69L1400.22 72.88" stroke="hsl(0, 90.4%, 63.7%)" stroke-width="1.5"></path><path d="M1400.22 72.88L1400.22 72.88" stroke="hsl(0, 90.4%, 63.7%)" stroke-width="1.5"></path><path d="M1400.22 72.88L1439.81 195.47" stroke="hsl(0, 90.4%, 63.7%)" stroke-width="1.5"></path><path d="M1400.22 72.88L1273.95 188.2" stroke="hsl(0, 90.4%, 63.7%)" stroke-width="1.5"></path><path d="M1439.81 195.47L1439.81 195.47" stroke="hsl(0, 90.4%, 63.7%)" stroke-width="1.5"></path><path d="M1392.98 561.04L1392.98 561.04" stroke="hsl(0, 90.4%, 63.7%)" stroke-width="1.5"></path><path d="M1392.98 561.04L1387.63 647.65" stroke="hsl(0, 90.4%, 63.7%)" stroke-width="1.5"></path><path d="M1387.63 647.65L1387.63 647.65" stroke="hsl(0, 90.4%, 63.7%)" stroke-width="1.5"></path><path d="M1387.63 647.65L1545.4 646.12" stroke="hsl(0, 90.4%, 63.7%)" stroke-width="1.5"></path><path d="M1387.63 647.65L1238.99 517.99" stroke="hsl(0, 90.4%, 63.7%)" stroke-width="1.5"></path><path d="M1387.63 647.65L1550.43 509.33" stroke="hsl(0, 90.4%, 63.7%)" stroke-width="1.5"></path><path d="M1591.07 -110.66L1591.07 -110.66" stroke="hsl(0, 90.4%, 63.7%)" stroke-width="1.5"></path><path d="M1591.07 -110.66L1455.81 -43.69" stroke="hsl(0, 90.4%, 63.7%)" stroke-width="1.5"></path><path d="M1591.07 -110.66L1549.7 95.95" stroke="hsl(0, 90.4%, 63.7%)" stroke-width="1.5"></path><path d="M1591.07 -110.66L1400.22 72.88" stroke="hsl(0, 90.4%, 63.7%)" stroke-width="1.5"></path><path d="M1586.06 350.48L1586.06 350.48" stroke="hsl(0, 90.4%, 63.7%)" stroke-width="1.5"></path><path d="M1586.06 350.48L1550.43 509.33" stroke="hsl(0, 90.4%, 63.7%)" stroke-width="1.5"></path><path d="M1586.06 350.48L1439.81 195.47" stroke="hsl(0, 90.4%, 63.7%)" stroke-width="1.5"></path><path d="M1586.06 350.48L1549.7 95.95" stroke="hsl(0, 90.4%, 63.7%)" stroke-width="1.5"></path><path d="M1550.43 509.33L1550.43 509.33" stroke="hsl(0, 90.4%, 63.7%)" stroke-width="1.5"></path><path d="M1550.43 509.33L1545.4 646.12" stroke="hsl(0, 90.4%, 63.7%)" stroke-width="1.5"></path><path d="M1550.43 509.33L1392.98 561.04" stroke="hsl(0, 90.4%, 63.7%)" stroke-width="1.5"></path><path d="M1550.43 509.33L1611.92 246.31" stroke="hsl(0, 90.4%, 63.7%)" stroke-width="1.5"></path><path d="M1550.43 509.33L1238.99 517.99" stroke="hsl(0, 90.4%, 63.7%)" stroke-width="1.5"></path><path d="M1545.4 646.12L1545.4 646.12" stroke="hsl(0, 90.4%, 63.7%)" stroke-width="1.5"></path><circle r="25" cx="793.17" cy="355.73" fill="url(&quot;#SvgjsRadialGradient1019&quot;)"></circle><circle r="25" cx="1127.24" cy="711.7" fill="url(&quot;#SvgjsRadialGradient1019&quot;)"></circle><circle r="25" cx="1238.99" cy="517.99" fill="url(&quot;#SvgjsRadialGradient1019&quot;)"></circle><circle r="25" cx="1248.59" cy="708.76" fill="url(&quot;#SvgjsRadialGradient1019&quot;)"></circle><circle r="25" cx="1549.7" cy="95.95" fill="url(&quot;#SvgjsRadialGradient1019&quot;)"></circle><circle r="25" cx="1611.92" cy="246.31" fill="url(&quot;#SvgjsRadialGradient1019&quot;)"></circle><circle r="5" cx="-83.36" cy="539.11" fill="#f78686"></circle><circle r="5" cx="-107.49" cy="672.71" fill="#f78686"></circle><circle r="5" cx="105.75" cy="684.51" fill="#f78686"></circle><circle r="5" cx="205.89" cy="510.24" fill="#f78686"></circle><circle r="5" cx="374.17" cy="498.94" fill="#f78686"></circle><circle r="5" cx="377.9" cy="708.38" fill="#f78686"></circle><circle r="5" cx="543.59" cy="545.51" fill="#f78686"></circle><circle r="5" cx="525.71" cy="695.37" fill="#f78686"></circle><circle r="5" cx="664.2" cy="519.18" fill="#f78686"></circle><circle r="5" cx="676.29" cy="705.91" fill="#f78686"></circle><circle r="5" cx="789.19" cy="532.12" fill="#f78686"></circle><circle r="5" cx="800.28" cy="656.49" fill="#f78686"></circle><circle r="5" cx="952.8" cy="496.22" fill="#f78686"></circle><circle r="5" cx="970.31" cy="644.93" fill="#f78686"></circle><circle r="5" cx="1132.32" cy="94.6" fill="#f78686"></circle><circle r="5" cx="1101.68" cy="194.08" fill="#f78686"></circle><circle r="5" cx="1249.56" cy="-54.61" fill="#f78686"></circle><circle r="5" cx="1240.49" cy="111.4" fill="#f78686"></circle><circle r="5" cx="1273.95" cy="188.2" fill="#f78686"></circle><circle r="5" cx="1455.81" cy="-43.69" fill="#f78686"></circle><circle r="5" cx="1400.22" cy="72.88" fill="#f78686"></circle><circle r="5" cx="1439.81" cy="195.47" fill="#f78686"></circle><circle r="5" cx="1392.98" cy="561.04" fill="#f78686"></circle><circle r="5" cx="1387.63" cy="647.65" fill="#f78686"></circle><circle r="5" cx="1591.07" cy="-110.66" fill="#f78686"></circle><circle r="5" cx="1586.06" cy="350.48" fill="#f78686"></circle><circle r="5" cx="1550.43" cy="509.33" fill="#f78686"></circle><circle r="5" cx="1545.4" cy="646.12" fill="#f78686"></circle></g><defs><mask id="SvgjsMask1018"><rect width="1440" height="560" fill="#ffffff"></rect></mask><radialGradient id="SvgjsRadialGradient1019"><stop stop-color="#ffffff" offset="0.1"></stop><stop stop-color="rgba(238, 12, 12, 1)" offset="0.2"></stop><stop stop-color="rgba(238, 12, 12, 0)" offset="1"></stop></radialGradient></defs></svg>